<svg width="714" height="405" viewBox="0 0 714 405" fill="none" xmlns="http://www.w3.org/2000/svg">
<path d="M304.577 246.378H282.831C282.064 246.378 281.514 245.513 281.514 244.688C281.514 244.395 293.086 207.088 293.086 207.088C293.498 205.693 293.537 205.652 293.695 205.652H293.714C293.89 205.652 293.911 205.693 294.322 207.088C294.322 207.088 305.893 244.395 305.893 244.688C305.893 245.513 305.302 246.378 304.577 246.378ZM333.908 161.02C333.8 160.651 333.582 160.324 333.284 160.082C332.986 159.84 332.621 159.694 332.238 159.664H252.38C252 159.695 251.638 159.838 251.34 160.076C251.042 160.314 250.823 160.636 250.71 161C250.71 161 206.567 306.728 206.567 307.004C206.567 307.73 207.137 308.319 207.883 308.319H260.67C260.879 308.232 261.063 308.095 261.207 307.921C261.351 307.746 261.45 307.539 261.495 307.317L267.644 287.673C267.738 287.43 267.902 287.22 268.115 287.069C268.329 286.919 268.581 286.834 268.842 286.827L317.544 286.789C318.073 286.828 318.546 287.202 318.742 287.673L325.028 307.317C325.126 307.771 325.441 308.182 325.853 308.339L377.795 308.319C378.521 308.319 379.131 307.769 379.131 307.042C379.131 306.787 333.908 161.02 333.908 161.02ZM484.39 220.519L451.955 220.539C451.955 220.539 451.092 220.283 451.092 219.301L451.072 202.936C451.072 201.954 451.937 201.699 451.937 201.699H481.679C485.137 201.699 492.13 203.428 492.13 211.423C492.13 219.419 484.39 220.519 484.39 220.519ZM639.901 207.849H713.394V159.658H618.9C610.061 159.658 597.625 164.217 590.494 169.501C583.363 174.785 573.049 186.828 573.049 203.428C573.049 220.028 583.127 232.935 583.127 232.935C588.293 239.339 601.299 252.679 601.299 252.679C601.594 252.993 601.771 253.405 601.771 253.878C601.771 254.878 600.965 255.684 599.963 255.684H527.177C518.317 255.644 517.708 252.129 517.708 251.618C517.708 250.714 518.808 250.144 518.808 250.144C522.129 248.553 528.905 243.267 528.905 243.267C543.286 232.071 545.016 216.709 545.016 208.477C545.016 200.225 543.777 185.629 529.024 172.841C514.271 160.051 495.588 159.698 495.588 159.698H391.723V307.47C391.723 307.94 392.155 308.313 392.627 308.313H450.443V266.862C450.443 266.137 451.562 266.862 451.562 266.862L481.679 297.117C492.386 307.94 510.086 308.313 510.086 308.313L623.949 308.294C643.379 308.294 654.184 297.726 657.149 294.778C660.097 291.811 669.939 280.752 669.939 262.423C669.939 244.114 661.57 234.743 657.994 230.441C654.813 226.59 642.121 213.152 639.469 210.362C639.309 210.231 639.18 210.067 639.092 209.88C639.003 209.693 638.957 209.489 638.958 209.283C638.958 208.633 639.331 208.025 639.901 207.847V207.849ZM180.18 308.31C180.573 308.31 180.848 308.035 180.966 307.603C180.966 307.603 225.699 160.677 225.699 160.538C225.699 160.145 225.463 159.714 225.089 159.675H169.945C169.67 159.675 169.493 159.891 169.434 160.186C169.434 160.205 158.02 198.395 158.02 198.414C157.941 198.729 157.784 198.925 157.509 198.925C157.234 198.925 156.998 198.65 156.959 198.414L145.015 160.166C144.976 159.909 144.78 159.675 144.505 159.675L83.6047 159.655C83.5161 159.679 83.4345 159.724 83.3663 159.785C83.2981 159.847 83.2451 159.923 83.2117 160.009L72.5047 198.395C72.4458 198.729 72.2689 198.925 71.9742 198.925C71.8493 198.923 71.7292 198.876 71.6356 198.793C71.542 198.71 71.4809 198.597 71.4633 198.473L60.108 160.127C60.0943 160.01 60.0428 159.9 59.9612 159.815C59.8796 159.73 59.7725 159.674 59.6561 159.655H0.878139C0.646694 159.658 0.425904 159.753 0.26394 159.918C0.101975 160.084 0.0119858 160.306 0.013604 160.538C0.013604 160.616 0.0332505 160.774 0.0332505 160.774L45.4335 307.603C45.5514 308.035 45.8265 308.31 46.2195 308.31L95.0386 308.33C95.3318 308.291 95.6281 307.957 95.7051 307.603C95.7248 307.603 112.698 252.969 112.698 252.969C112.796 252.635 112.934 252.44 113.209 252.44C113.504 252.44 113.662 252.675 113.74 252.95L130.3 307.839C130.348 307.977 130.439 308.097 130.559 308.182C130.678 308.266 130.822 308.311 130.968 308.31H180.18ZM137.712 0.00604527C128.852 0.00604527 116.437 4.563 109.306 9.84847C102.173 15.1324 91.8616 27.1755 91.8616 43.7755C91.8616 60.3755 101.938 73.2831 101.938 73.2831C107.106 79.687 120.11 93.1236 120.11 93.1236C120.405 93.438 120.582 93.8506 120.582 94.3025C120.582 95.3046 119.776 96.1298 118.776 96.1298H0V148.661H142.762C162.172 148.661 172.995 138.092 175.962 135.126C178.909 132.179 188.732 121.118 188.732 102.789C188.732 84.4798 180.383 75.0107 176.807 70.7091C173.624 66.858 160.934 53.5 158.281 50.7296C158.122 50.5934 157.994 50.4248 157.906 50.2349C157.818 50.0451 157.772 49.8385 157.77 49.6293C157.77 48.9808 158.144 48.3914 158.714 48.1949H227.471V148.661H280.337V48.4503H344.518V0.00604527H137.712ZM598.799 60.8682L566.365 60.8879C566.365 60.8879 565.501 60.6324 565.501 59.65L565.481 43.2858C565.481 42.3034 566.346 42.0479 566.346 42.0479H596.089C599.546 42.0479 606.539 43.777 606.539 51.7725C606.539 59.7679 598.801 60.8682 598.801 60.8682H598.799ZM641.588 96.0331C632.746 95.9938 632.119 92.4782 632.119 91.9674C632.119 91.0635 633.217 90.4937 633.217 90.4937C636.538 88.9022 643.315 83.6167 643.315 83.6167C657.696 72.4201 659.426 57.0579 659.426 48.8267C659.426 40.5743 658.186 25.9784 643.435 13.1902C628.68 0.400528 609.997 0.00755587 609.997 0.00755587H506.132V147.818C506.132 148.289 506.566 148.664 507.037 148.664H564.852V107.23C564.852 106.483 565.972 107.23 565.972 107.23L596.089 137.464C606.795 148.288 624.495 148.661 624.495 148.661H713.39V96.0361H641.588V96.0331ZM421.805 86.7137H400.057C399.251 86.7137 398.742 85.8491 398.742 85.0239C398.742 84.7095 410.312 47.4241 410.312 47.4241C410.725 46.029 410.841 45.9882 410.921 45.9882H410.941C411.019 45.9882 411.137 46.029 411.55 47.4241C411.55 47.4241 423.12 84.711 423.12 85.0239C423.12 85.8491 422.591 86.7137 421.805 86.7137ZM451.075 1.31645C450.971 0.948916 450.754 0.623663 450.454 0.387215C450.154 0.150766 449.787 0.015233 449.405 0H369.549C368.763 0.0392971 368.095 0.569808 367.879 1.29681C367.879 1.29681 323.775 147.063 323.775 147.339C323.775 148.066 324.365 148.655 325.09 148.655H377.878C378.31 148.519 378.623 148.105 378.722 147.653L384.872 127.989C384.971 127.751 385.136 127.546 385.349 127.4C385.562 127.253 385.812 127.171 386.07 127.164H434.75C435.011 127.182 435.261 127.27 435.476 127.418C435.69 127.567 435.861 127.771 435.968 128.009L442.256 147.653C442.353 148.106 442.667 148.517 443.08 148.675L495.021 148.655C495.748 148.655 496.338 148.105 496.338 147.358C496.338 147.122 451.075 1.31645 451.075 1.31645Z" fill="black"/>
<path d="M91.4184 367.323V357.746H58.2637V404.177H69.944V386.838H89.8223V377.77H69.944V367.323H91.4184Z" fill="black"/>
<path d="M166.876 404.177L150.48 357.746H135.68L119.284 404.177H131.617L134.156 396.197H152.003L154.542 404.177H166.876ZM149.464 387.564H136.695L143.007 367.976L149.464 387.564Z" fill="black"/>
<path d="M239.983 357.746H227.65L216.042 393.875L204.724 357.746H192.391L208.715 404.177H223.297L239.983 357.746Z" fill="black"/>
<path d="M316.593 381.034C316.593 368.629 312.602 357.093 294.03 357.093C275.603 357.093 271.612 368.629 271.612 380.962C271.612 393.295 275.53 404.83 294.03 404.83C312.602 404.83 316.593 393.295 316.593 381.034ZM304.622 381.034C304.622 388.942 303.389 395.181 294.03 395.181C284.889 395.181 283.51 388.942 283.51 380.962C283.51 373.054 284.889 366.597 294.03 366.597C303.389 366.597 304.622 373.054 304.622 381.034Z" fill="black"/>
<path d="M393.792 404.177L378.847 387.128C389.947 386.476 391.76 378.423 391.76 373.272C391.76 367.178 390.019 357.746 372.172 357.746H354.398V404.177H366.151V386.621L379.427 404.177H393.792ZM379.862 373.272C379.862 375.956 378.484 379.076 372.027 379.076H366.151V367.323H372.027C378.484 367.323 379.862 370.37 379.862 373.272Z" fill="black"/>
<path d="M441.176 404.177V357.746H429.423V404.177H441.176Z" fill="black"/>
<path d="M511.843 367.323V357.746H476.874V367.323H488.555V404.177H500.162V367.323H511.843Z" fill="black"/>
<path d="M581.111 404.177V394.601H559.202V385.025H578.935V375.956H559.202V367.323H581.111V357.746H547.521V404.177H581.111Z" fill="black"/>
<path d="M656.593 390.103C656.593 372.256 629.75 378.568 629.75 370.805C629.75 368.411 631.129 366.38 636.57 366.38C643.099 366.38 644.26 369.572 644.477 373.489H656.085C655.868 364.058 651.732 357.093 636.932 357.093C622.35 357.093 618.07 363.84 618.07 371.966C618.07 388.217 645.203 381.76 645.203 390.756C645.203 393.077 643.752 395.544 637.73 395.544C630.983 395.544 629.17 392.424 628.952 387.709H617.272C617.272 398.809 622.64 404.83 638.021 404.83C652.603 404.83 656.593 396.923 656.593 390.103Z" fill="black"/>
</svg>
