<svg width="972" height="100" viewBox="0 0 972 100" fill="none" xmlns="http://www.w3.org/2000/svg">
<path fill-rule="evenodd" clip-rule="evenodd" d="M216.368 99.8755L248.881 0H297.988L331.057 99.8755H293.66L287.442 81.8829H258.062L251.822 99.8755H216.368ZM273.539 22.1211L259.35 61.6933H286.605L273.539 22.1211ZM632.339 99.9172L664.852 0.0416266H713.954L747.033 99.9172H709.631L703.423 81.9246H674.038L667.798 99.9172H632.339V99.9172ZM689.51 22.1627L675.326 61.735H702.581L689.51 22.1627V22.1627ZM339.604 99.8755V0H410.298C418.278 0 424.772 2.853 429.884 6.35155C434.981 9.8397 439.361 14.343 441.106 20.4707C443.585 29.1599 443.034 36.1518 441.387 40.9414C439.735 45.7363 436.862 49.7607 432.763 52.9833C428.663 56.206 425.245 58.7414 417.582 60.5844C420.538 63.5988 420.512 63.7185 424.003 66.1967C428.757 69.5651 433.142 70.044 449.403 70.1117L477.365 70.1221V99.8755L449.211 99.9484C418.569 100.026 407.783 99.787 401.912 94.5079C394.53 87.8752 386.503 80.1024 375.348 66.8891V99.8755H339.604V99.8755ZM375.343 24.8856V43.3051H400.255C401.585 43.3051 403.04 42.8105 404.583 41.8161C406.126 40.8269 406.967 38.3227 407.061 34.3088C406.827 30.4822 405.892 27.9572 404.281 26.7285C402.666 25.5051 401.289 24.8856 400.213 24.8856H375.343ZM972 0.0416266H899.062C886.468 0.0416266 878.971 6.20578 876.597 18.5757C874.233 30.9196 880.992 44.4765 896.89 59.2308C906.522 66.9099 904.854 70.5438 891.949 70.1638H874.991V70.1221L866.003 70.1117C849.736 70.044 845.351 69.5703 840.603 66.1967C837.111 63.7133 837.132 63.5988 834.181 60.5844C841.844 58.7414 845.263 56.206 849.362 52.9833C853.461 49.7607 856.345 45.7363 857.987 40.9414C859.628 36.1518 860.179 29.1599 857.701 20.4707C855.955 14.343 851.581 9.8397 846.489 6.35155C841.377 2.853 834.883 0 826.902 0H756.208V99.8755H791.948V66.8891C803.097 80.1024 811.124 87.8752 818.512 94.5079C824.377 99.787 835.163 100.188 865.811 99.9484L871.126 99.9067V99.9172H923.719C937.944 97.5067 945.223 90.1399 945.503 77.77C945.758 65.4209 938.635 52.5408 923.719 39.593C915.573 32.523 917.194 29.769 928.925 29.769H972V0.0416266ZM791.948 24.8856V43.3051H816.86C818.2 43.3051 819.639 42.8105 821.182 41.8161C822.725 40.8269 823.567 38.3227 823.66 34.3088C823.427 30.4822 822.492 27.9572 820.881 26.7285C819.265 25.5051 817.899 24.8856 816.823 24.8856H791.948V24.8856ZM78.5183 0C65.9194 0 58.4432 6.16411 56.0585 18.534C53.6946 30.8831 60.0642 44.8825 76.3414 59.1891C85.5945 67.3212 84.3112 70.1221 71.411 70.1221H0V99.8755H103.176C117.609 99.8755 124.695 90.0931 124.96 77.7284C125.225 65.3845 117.972 52.6554 103.176 39.5514C94.9047 32.6324 96.6555 29.3733 108.387 29.7325H152.662V99.8807H184.822V29.7273H229.721V0H78.5183ZM550.174 0L541.326 29.6753L531.512 0H494.624L527.137 99.8755H558.99L569.901 66.5091L580.801 99.8755H612.654L645.167 0H608.279L598.465 29.6753L589.617 0H550.174Z" fill="black"/>
</svg>
